# xmcd
#
# Track frame offsets:
#	150
#	8746
#	40520
#	76668
#	128186
#	165084
#	206771
#	251043
#	290125
#
# Disc length: 4614 seconds
# Revision: 0
# Processed by: cddbd v1.5.2PL0 Copyright (c) Steve Scherf et al.
# Submitted via: dBpowerAMP V12.0
#
DISCID=6c120409
DTITLE=Various Artist - Erzählungen, Märchen, Parabeln CD2
DYEAR=1900
DGENRE=Unbekanntes Genre
TTITLE0=Otto Mellies - Die Gräfin richtete die hohe Gestalt...
TTITLE1=Otto Mellies - «Ich will sie so kurz machen als möglich»...
TTITLE2=Otto Mellies - Bald darauf, an einem Sonntagnachmittag...
TTITLE3=Otto Mellies - «So groß der Dienertroß im Schlosse auch war...
TTITLE4=Otto Mellies - Ein paarmal war die Sonne auf- und untergegangen...
TTITLE5=Otto Mellies - Die Herrin stand unter dem Portal des Schlosses...
TTITLE6=Dagmar von Thomas - Birgit Minichmayr - Die Spitzin
TTITLE7=Dagmar von Thomas - Birgit Minichmayr - Das ärmste von den armen Tieren...
TTITLE8=Dagmar von Thomas - Birgit Minichmayr - Eine Woche verging...
EXTD=
EXTT0=
EXTT1=
EXTT2=
EXTT3=
EXTT4=
EXTT5=
EXTT6=
EXTT7=
EXTT8=
PLAYORDER=
